HIERARCHY
ROOT Hips
{
	OFFSET 0.00000 0.00000 0.00000
	CHANNELS 6 Xposition Yposition Zposition Zrotation Yrotation Xrotation 
	JOINT LHipJoint
	{
		OFFSET 0 0 0
		CHANNELS 3 Zrotation Yrotation Xrotation
		JOINT LeftHip
		{
			OFFSET 1.80322 -1.53100 0.99595
			CHANNELS 3 Zrotation Yrotation Xrotation
			JOINT LeftKnee
			{
				OFFSET 2.25177 -6.18669 0.00000
				CHANNELS 3 Zrotation Yrotation Xrotation
				JOINT LeftAnkle
				{
					OFFSET 2.26601 -6.22582 0.00000
					CHANNELS 3 Zrotation Yrotation Xrotation
					JOINT LeftToe
					{
						OFFSET 0.23701 -0.65119 2.15848
						CHANNELS 3 Zrotation Yrotation Xrotation
						End Site
						{
							OFFSET 0.00000 -0.00000 1.12949
						}
					}
				}
			}
		}
	}
	JOINT RHipJoint
	{
		OFFSET 0 0 0
		CHANNELS 3 Zrotation Yrotation Xrotation
		JOINT RightHip
		{
			OFFSET -1.93977 -1.53100 0.99595
			CHANNELS 3 Zrotation Yrotation Xrotation
			JOINT RightKnee
			{
				OFFSET -2.28036 -6.26523 0.00000
				CHANNELS 3 Zrotation Yrotation Xrotation
				JOINT RightAnkle
				{
					OFFSET -2.25490 -6.19528 0.00000
					CHANNELS 3 Zrotation Yrotation Xrotation
					JOINT RightToe
					{
						OFFSET -0.28375 -0.77960 2.23137
						CHANNELS 3 Zrotation Yrotation Xrotation
						End Site
						{
							OFFSET -0.00000 -0.00000 1.17899
						}
					}
				}
			}
		}
	}
	JOINT lowerback
	{
		OFFSET 0 0 0
		CHANNELS 3 Zrotation Yrotation Xrotation
		JOINT Chest
		{
			OFFSET -0.00088 2.12090 -0.02806
			CHANNELS 3 Zrotation Yrotation Xrotation
			JOINT Chest2
			{
				OFFSET -0.00286 2.09666 0.12974
				CHANNELS 3 Zrotation Yrotation Xrotation
				JOINT lowerneck
				{
					OFFSET 0 0 0
					CHANNELS 3 Zrotation Yrotation Xrotation
					JOINT Neck
					{
						OFFSET 0.07328 1.83526 0.07290
						CHANNELS 3 Zrotation Yrotation Xrotation
						JOINT Head
						{
							OFFSET -0.06683 1.74974 -0.49542
							CHANNELS 3 Zrotation Yrotation Xrotation
							End Site
							{
								OFFSET -0.03398 1.85163 -0.17573
							}
						}
					}
				}
				JOINT LeftCollar
				{
					OFFSET 0 0 0
					CHANNELS 3 Zrotation Yrotation Xrotation
					JOINT LeftShoulder
					{
						OFFSET 3.02113 1.18018 0.40602
CHANNELS 3 Zrotation Xrotation Yrotation
						JOINT LeftElbow
						{
OFFSET 0 -4.585380 -0.000000
CHANNELS 3 Zrotation Xrotation Yrotation
							JOINT LeftWrist
							{
OFFSET 0 -2.689350 -0.000000
CHANNELS 3 Zrotation Xrotation Yrotation
								JOINT lhand
								{
									OFFSET 0 0 0
CHANNELS 3 Zrotation Xrotation Yrotation
									JOINT LFingers
									{
OFFSET 0 -0.585060 -0.000000
CHANNELS 3 Zrotation Xrotation Yrotation
										End Site
										{
OFFSET 0 -0.471690 -0.000000
										}
									}
								}
								JOINT LThumb
								{
OFFSET 0 0.000000 0.000000
CHANNELS 3 Zrotation Xrotation Yrotation
									End Site
									{
OFFSET 0 -0.478890 0.478890
									}
								}
							}
						}
					}
				}
				JOINT RightCollar
				{
					OFFSET 0 0 0
					CHANNELS 3 Zrotation Yrotation Xrotation
					JOINT RightShoulder
					{
						OFFSET -2.95074 1.18843 0.31430
CHANNELS 3 Zrotation Xrotation Yrotation
						JOINT RightElbow
						{
OFFSET 0 -4.474500 -0.000000
CHANNELS 3 Zrotation Xrotation Yrotation
							JOINT RightWrist
							{
OFFSET 0 -2.938960 -0.000000
CHANNELS 3 Zrotation Xrotation Yrotation
								JOINT rhand
								{
									OFFSET 0 0 0
CHANNELS 3 Zrotation Xrotation Yrotation
									JOINT RFingers
									{
OFFSET 0 -0.405090 -0.000000
CHANNELS 3 Zrotation Xrotation Yrotation
										End Site
										{
OFFSET 0 -0.326600 -0.000000
										}
									}
								}
								JOINT RThumb
								{
OFFSET 0 0.000000 0.000000
CHANNELS 3 Zrotation Xrotation Yrotation
									End Site
									{
OFFSET 0 -0.331580 0.331580
									}
								}
							}
						}
					}
				}
			}
		}
	}
}
MOTION
Frames: 11
Frame Time: 0.008333333333333333
0.074415 14.763527 -2.158361 -5.726269 -33.355758 20.823997 0.000000 0.000000 0.000000 -0.210851 -2.721632 -55.842697 7.516406 15.751796 50.801577 -0.091599 9.412167 -11.662631 0.059937 1.578742 4.342705 0.000000 0.000000 0.000000 21.046847 12.544383 -3.607597 -2.082927 -9.036848 25.910527 -2.180168 -21.185659 -41.743433 -0.008940 0.610821 -1.678515 3.576253 0.550326 -3.009715 -0.952912 0.643353 -6.846326 -3.000939 0.078054 -5.364867 15.391106 10.190502 -8.428817 -12.440912 15.103935 28.571351 -5.178983 6.973419 13.167429 0.000000 0.000000 0.000000 35.200799 -30.728851 -26.052114 157.613712 -33.410827 113.202677 32.909507 5.374440 -4.673587 0.000000 0.000000 0.000000 -7.125000 0.000000 0.000000 5.216036 35.501897 1.221406 0.000000 0.000000 0.000000 -17.275781 -38.886612 50.673223 -147.470712 -42.965057 -106.899899 -39.840466 -13.380885 -9.566136 0.000000 0.000000 0.000000 7.125000 0.000000 0.000000 -9.006318 17.691131 -5.917330
0.036200 14.762814 -2.292542 -5.375760 -33.801384 19.596462 0.000000 0.000000 0.000000 0.296227 -4.686146 -51.293999 6.330172 14.740729 46.292684 -0.145913 11.578474 -14.230140 0.224379 3.048630 8.414321 0.000000 0.000000 0.000000 20.910375 10.970831 -3.567549 -2.104357 -9.080123 26.046202 -2.201086 -20.159486 -40.927529 -0.008343 0.590001 -1.621242 4.558551 0.681935 -3.560897 -0.502973 0.810596 -6.769601 -3.078087 0.134693 -4.959034 15.865290 10.499792 -7.309644 -12.950928 15.909724 29.624723 -5.406640 7.362681 13.638417 0.000000 0.000000 0.000000 33.946671 -29.394369 -27.084470 157.897797 -33.092327 113.358465 33.342657 5.492273 -4.085578 0.000000 0.000000 0.000000 -7.125000 0.000000 0.000000 5.555096 34.824250 1.393346 0.000000 0.000000 0.000000 -17.146803 -38.152048 52.182319 -146.803106 -43.480846 -106.442687 -40.657892 -13.068121 -10.039522 0.000000 0.000000 0.000000 7.125000 0.000000 0.000000 -9.484367 16.955238 -6.395171
0.001115 14.786411 -2.392091 -4.815709 -33.720149 18.417250 0.000000 0.000000 0.000000 0.250491 -5.827654 -49.044707 5.815433 14.247048 44.236417 -0.274622 13.045909 -14.595345 0.265084 3.312389 9.149615 0.000000 0.000000 0.000000 20.668971 9.527652 -3.616659 -2.155813 -9.183295 26.370373 -2.190761 -19.451703 -40.262419 -0.011778 0.699620 -1.922729 4.684144 0.752914 -4.148421 -0.041830 0.886179 -6.662129 -2.660712 0.191637 -4.511242 16.144897 10.654628 -6.715998 -13.067434 16.351281 30.718900 -5.490910 7.593822 14.129561 0.000000 0.000000 0.000000 32.718851 -28.606443 -28.331695 157.986577 -32.992188 113.406862 33.502517 5.189998 -3.986170 0.000000 0.000000 0.000000 -7.125000 0.000000 0.000000 5.683356 34.712655 1.441302 0.000000 0.000000 0.000000 -17.272073 -37.059120 52.925206 -146.876108 -43.425104 -106.492837 -39.452776 -13.546675 -9.844499 0.000000 0.000000 0.000000 7.125000 0.000000 0.000000 -8.696931 17.402189 -5.765027
-0.046477 14.787933 -2.486843 -4.040540 -32.592850 16.957337 0.000000 0.000000 0.000000 -0.202444 -6.532867 -47.723762 5.501330 13.927086 42.946111 -0.349343 13.164514 -13.444942 0.225257 3.054700 8.431110 0.000000 0.000000 0.000000 20.979838 9.027861 -2.708210 -2.210723 -9.291968 26.712860 -2.326730 -19.946625 -41.309756 -0.003267 0.370495 -1.018040 4.330253 0.593888 -4.305938 0.171167 0.676899 -6.627588 -2.240799 0.112933 -4.404836 16.151961 10.527028 -6.267306 -12.544119 16.164976 31.640071 -5.367528 7.585913 14.353204 0.000000 0.000000 0.000000 32.347891 -28.623395 -29.596108 157.840815 -33.156461 113.327264 33.478648 5.996904 -4.989749 0.000000 0.000000 0.000000 -7.125000 0.000000 0.000000 5.704514 35.906488 1.280132 0.000000 0.000000 0.000000 -16.953908 -36.216788 53.225233 -147.197650 -43.177524 -106.713355 -36.776697 -14.672278 -9.286276 0.000000 0.000000 0.000000 7.125000 0.000000 0.000000 -6.934741 18.489634 -4.410379
-0.064071 14.780915 -2.517857 -3.860905 -31.878716 16.213241 0.000000 0.000000 0.000000 -0.193774 -7.319695 -46.646969 5.324303 13.739974 42.205654 -0.394213 13.505647 -13.276068 0.175416 2.697901 7.438727 0.000000 0.000000 0.000000 21.255607 8.365855 -1.771834 -2.130348 -9.132467 26.210601 -2.356930 -20.044051 -41.528456 -0.002629 0.331170 -0.909868 4.985317 0.786676 -4.723941 0.117671 0.900588 -6.707494 -2.656807 0.195325 -4.235147 15.989923 10.367991 -6.238725 -12.140063 15.925235 32.350141 -5.246231 7.507446 14.562195 0.000000 0.000000 0.000000 32.766365 -29.163109 -28.856499 157.075116 -34.006541 112.903801 31.904168 0.728772 -0.116792 0.000000 0.000000 0.000000 -7.125000 0.000000 0.000000 4.212495 30.103667 1.535173 0.000000 0.000000 0.000000 -16.751211 -36.382082 53.327913 -147.485642 -42.953412 -106.910004 -35.248193 -14.383460 -8.212536 0.000000 0.000000 0.000000 7.125000 0.000000 0.000000 -5.999188 19.984751 -3.607340
-0.075507 14.767207 -2.539075 -3.793494 -30.842953 15.849572 0.000000 0.000000 0.000000 -0.035328 -8.204825 -46.390900 5.278807 13.691032 42.013703 -0.408765 13.523578 -13.012843 0.154642 2.533706 6.983144 0.000000 0.000000 0.000000 21.647241 7.714802 -1.183756 -2.062209 -8.994519 25.778196 -2.388292 -20.315760 -41.900018 -0.002130 0.296966 -0.815960 5.421992 0.890742 -4.993390 0.146784 1.018463 -6.821869 -2.866505 0.233570 -4.193754 15.662746 10.293738 -6.706730 -12.009485 15.833340 32.652325 -5.143599 7.427077 14.737199 0.000000 0.000000 0.000000 32.791063 -28.658086 -29.704293 157.357248 -33.695784 113.060908 32.459810 2.676134 -2.140019 0.000000 0.000000 0.000000 -7.125000 0.000000 0.000000 4.749413 32.491025 1.459121 0.000000 0.000000 0.000000 -16.996156 -36.889069 53.294094 -147.670936 -42.808006 -107.036070 -34.695912 -14.450256 -7.901597 0.000000 0.000000 0.000000 7.125000 0.000000 0.000000 -5.643360 20.420133 -3.335747
-0.089242 14.754287 -2.565937 -3.447167 -29.426537 15.660947 0.000000 0.000000 0.000000 -0.235842 -8.715633 -47.071006 5.304274 13.718416 42.121139 -0.375639 12.788820 -12.048363 0.164959 2.616570 7.213093 0.000000 0.000000 0.000000 21.851117 7.049789 -1.261162 -2.077957 -9.026631 25.878581 -2.477623 -20.630125 -42.558053 -0.001982 0.285669 -0.785033 5.128661 0.858031 -5.100322 0.158601 0.979872 -6.995690 -2.690385 0.221751 -4.322514 15.200886 10.139667 -7.196663 -11.887053 15.613961 32.668345 -5.034281 7.276264 14.743572 0.000000 0.000000 0.000000 32.714883 -27.969922 -29.413688 157.342542 -33.712102 113.052749 32.042121 2.273246 -1.582340 0.000000 0.000000 0.000000 -7.125000 0.000000 0.000000 4.389208 31.827176 1.417886 0.000000 0.000000 0.000000 -17.316259 -36.934358 53.039254 -147.853431 -42.663714 -107.159978 -34.584985 -14.708664 -7.863707 0.000000 0.000000 0.000000 7.125000 0.000000 0.000000 -5.568670 20.477412 -3.284007
-0.097790 14.733293 -2.575572 -3.367495 -27.538147 15.639861 0.000000 0.000000 0.000000 -0.596602 -8.123657 -49.266136 5.700715 14.131581 43.767787 -0.264060 10.802663 -10.235901 0.238927 3.144347 8.680970 0.000000 0.000000 0.000000 22.334459 6.016013 -1.126710 -2.020708 -8.909031 25.511246 -2.501121 -21.023508 -42.993862 -0.005671 0.485108 -1.332939 4.923667 0.751983 -4.766897 0.091121 0.868557 -7.198704 -2.652406 0.161265 -4.734954 14.706402 9.935123 -7.729259 -11.534492 15.238985 32.666041 -4.848099 7.077858 14.694333 0.000000 0.000000 0.000000 33.505012 -27.143389 -27.936945 157.162054 -33.911184 112.952311 31.422025 1.258984 -0.913631 0.000000 0.000000 0.000000 -7.125000 0.000000 0.000000 3.865951 31.037071 1.321925 0.000000 0.000000 0.000000 -16.935295 -36.823797 53.141157 -147.911756 -42.617434 -107.199471 -34.817813 -15.079518 -7.982847 0.000000 0.000000 0.000000 7.125000 0.000000 0.000000 -5.720794 20.309312 -3.396321
-0.090298 14.668243 -2.519784 -3.651069 -24.731884 16.238874 0.000000 0.000000 0.000000 -0.546512 -7.534975 -53.978764 6.777553 15.141032 48.026717 -0.181102 8.468892 -7.255912 0.216676 2.994704 8.264079 0.000000 0.000000 0.000000 23.269679 4.832383 -1.229457 -1.967380 -8.797790 25.164836 -2.586502 -21.739608 -43.963090 -0.013385 0.746227 -2.050683 5.213708 0.715641 -4.712120 -0.085408 0.824111 -7.448556 -3.001176 0.107984 -5.034441 14.107068 9.594535 -8.691001 -11.077835 14.579610 32.428861 -4.626999 6.744943 14.563457 0.000000 0.000000 0.000000 35.134102 -26.469163 -25.251687 156.880328 -34.219362 112.794510 30.365902 -2.043856 1.693153 0.000000 0.000000 0.000000 -7.125000 0.000000 0.000000 2.928076 28.013967 1.210136 0.000000 0.000000 0.000000 -16.172805 -37.009685 53.293837 -148.185416 -42.398812 -107.384434 -34.975741 -15.109389 -8.104805 0.000000 0.000000 0.000000 7.125000 0.000000 0.000000 -5.818837 20.145291 -3.476605
-0.060199 14.580839 -2.292557 -4.286697 -22.663017 17.069392 0.000000 0.000000 0.000000 0.214513 -7.653975 -57.782329 7.614099 15.827936 51.160402 0.000887 5.163703 -7.394731 0.030274 1.112719 3.059044 0.000000 0.000000 0.000000 24.225371 4.312442 -0.175727 -1.776565 -8.384163 23.887330 -2.597932 -22.910815 -45.018440 -0.021426 0.944853 -2.597065 5.789537 1.332877 -5.293826 -0.390039 1.604708 -7.809295 -3.628062 0.452876 -5.007649 13.487536 8.975786 -9.664914 -10.485463 13.477735 32.195907 -4.431354 6.240897 14.359297 0.000000 0.000000 0.000000 36.747413 -25.521764 -23.829326 156.706185 -34.408571 112.696325 30.135238 -2.814748 2.477826 0.000000 0.000000 0.000000 -7.125000 0.000000 0.000000 2.714706 27.112881 1.180172 0.000000 0.000000 0.000000 -15.596890 -36.832154 53.216546 -148.476838 -42.163672 -107.580459 -35.598363 -15.712348 -8.462144 0.000000 0.000000 0.000000 7.125000 0.000000 0.000000 -6.216400 19.642442 -3.787256
0.006392 14.464347 -1.879845 -4.376552 -21.073150 17.521165 0.000000 0.000000 0.000000 0.588654 -9.408617 -59.279291 7.548196 15.776664 50.918454 0.028076 6.361440 -9.773464 0.000200 -0.085157 -0.233915 0.000000 0.000000 0.000000 24.224886 3.837266 2.151539 -1.518288 -7.780818 22.050288 -2.635559 -24.070771 -46.179057 -0.044830 1.365380 -3.754721 5.770886 2.218159 -6.161800 -0.840699 2.731640 -8.414041 -4.050329 0.990689 -5.031171 12.856929 8.296360 -11.270151 -9.641517 12.272376 33.171321 -4.167828 5.697615 14.839726 0.000000 0.000000 0.000000 38.406129 -24.023954 -23.418661 156.906793 -34.190640 112.809396 31.689445 -0.186715 0.595838 0.000000 0.000000 0.000000 -7.125000 0.000000 0.000000 4.008511 29.269269 1.539792 0.000000 0.000000 0.000000 -15.038360 -36.749278 52.824366 -148.446716 -42.188154 -107.560211 -35.806252 -16.257251 -9.026830 0.000000 0.000000 0.000000 7.125000 0.000000 0.000000 -6.292042 18.933257 -3.933872
